<svg width="312" height="208" fill="none" xmlns="http://www.w3.org/2000/svg"><path d="M312 13H0v195h312V13z" fill="#CAEEDD"/><path d="M253.909 221.183h6.865c5.445 0 9.858-4.105 9.858-9.172V98.24c0-5.067-4.413-9.172-9.858-9.172h-6.865v132.115zM108.342 89.067h-6.865c-5.445 0-9.858 4.106-9.858 9.173v113.778c0 5.067 4.413 9.173 9.858 9.173h6.865V89.067z" fill="#392151"/><path d="M253.918 89.067H108.343v132.116h145.575V89.068zm8.354 70.864c2.852 0 5.164-2.151 5.164-4.805s-2.312-4.806-5.164-4.806-5.164 2.152-5.164 4.806 2.312 4.805 5.164 4.805z" fill="#fff"/><path d="M52.863 48.427c-4.276 0-7.754-3.236-7.754-7.215V7.215C45.109 3.236 48.587 0 52.863 0s7.754 3.236 7.754 7.215v33.997c-.007 3.979-3.485 7.215-7.754 7.215zm0-45.288c-2.416 0-4.38 1.828-4.38 4.076v33.997c0 2.247 1.964 4.076 4.38 4.076s4.38-1.828 4.38-4.076V7.215c0-2.248-1.964-4.076-4.38-4.076z" fill="#4E2E70"/><path d="M55.619 122.22c-1.889 0-3.34-.555-4.38-1.188-6.387-3.863-6.804-15.419-6.484-21.962.388-8.036 2.207-16.976 3.804-24.87 1.402-6.918 2.617-12.893 2.617-16.814V29.158h3.374v28.228c0 4.212-1.243 10.323-2.673 17.396-1.583 7.79-3.374 16.62-3.756 24.43-.479 9.85 1.375 17.027 4.957 19.191 1.68 1.02 3.79.911 6.449-.323 15.23-7.086 9.094-23.894 3.158-40.152-2.797-7.661-5.435-14.896-5.435-20.542V29.158h3.374v28.228c0 5.13 2.554 12.125 5.255 19.534 3.033 8.3 6.164 16.885 6.504 24.643.41 9.256-3.304 15.58-11.35 19.32-2.096.976-3.894 1.337-5.414 1.337z" fill="#fff"/><path d="M50.002 122.22c-1.52 0-3.318-.361-5.407-1.33-8.039-3.74-11.753-10.064-11.35-19.321.34-7.758 3.478-16.342 6.504-24.643 2.708-7.409 5.255-14.404 5.255-19.533V29.165h3.374v28.228c0 5.645-2.638 12.88-5.435 20.541C37.007 94.193 30.87 111 46.1 118.086c2.659 1.234 4.762 1.344 6.45.323 3.581-2.164 5.435-9.34 4.956-19.19-.382-7.81-2.173-16.64-3.756-24.43-1.437-7.074-2.673-13.185-2.673-17.396V29.165h3.374v28.228c0 3.92 1.215 9.896 2.617 16.814 1.604 7.893 3.416 16.833 3.804 24.869.32 6.543-.097 18.099-6.483 21.962-1.048.627-2.5 1.182-4.388 1.182z" fill="#fff"/><path d="M61.039 9.883H44.684v43.453h16.355V9.883z" fill="#58347B"/><path d="M181.071 181.846c15.165 0 27.459-11.465 27.459-25.607s-12.294-25.607-27.459-25.607-27.459 11.465-27.459 25.607 12.294 25.607 27.459 25.607z" fill="#06C167"/><circle cx="181" cy="156" r="30" fill="#06C167"/><path d="M169.532 154.477l8.422 8.071 16.251-15.587" stroke="#fff" stroke-width="5" stroke-miterlimit="10"/></svg>